<svg width="24" height="17" viewBox="0 0 24 17" fill="none" xmlns="http://www.w3.org/2000/svg">
    <path d="M1.33333 16.5H22.6667C23.4 16.5 24 15.8813 24 15.125C24 14.3687 23.4 13.75 22.6667 13.75H1.33333C0.6 13.75 0 14.3687 0 15.125C0 15.8813 0.6 16.5 1.33333 16.5ZM1.33333 9.625H22.6667C23.4 9.625 24 9.00625 24 8.25C24 7.49375 23.4 6.875 22.6667 6.875H1.33333C0.6 6.875 0 7.49375 0 8.25C0 9.00625 0.6 9.625 1.33333 9.625ZM0 1.375C0 2.13125 0.6 2.75 1.33333 2.75H22.6667C23.4 2.75 24 2.13125 24 1.375C24 0.61875 23.4 0 22.6667 0H1.33333C0.6 0 0 0.61875 0 1.375Z" fill="white"/>
</svg>
