<svg width="2147" height="1073" viewBox="0 0 2147 1073" fill="none" xmlns="http://www.w3.org/2000/svg">
    <path d="M2139.7 806.71C2123.57 870.431 2078.42 923.637 2010.51 965.278C1942.6 1006.92 1851.95 1036.98 1744.88 1054.4C1530.76 1089.24 1251.09 1073.52 956.634 998.951C662.175 924.385 408.728 805.103 236.996 672.552C151.13 606.275 85.7121 536.696 45.8041 467.749C5.8977 398.805 -8.48561 330.524 7.65067 266.803C23.787 203.082 68.935 149.875 136.845 108.234C204.758 66.5912 295.408 36.5335 402.469 19.1128C616.59 -15.7281 896.262 -0.00574525 1190.72 74.5611C1485.18 149.128 1738.63 268.409 1910.36 400.961C1996.22 467.237 2061.64 536.816 2101.55 605.763C2141.46 674.707 2155.84 742.989 2139.7 806.71Z" stroke="url(#paint0_linear_0_1)"/>
    <path d="M1453.64 640.312C1447.95 662.782 1432.03 681.57 1408.02 696.292C1384 711.016 1351.93 721.655 1314.03 727.822C1238.23 740.157 1139.19 734.593 1034.91 708.184C930.622 681.775 840.876 639.534 780.079 592.607C749.68 569.144 726.538 544.524 712.427 520.146C698.318 495.77 693.254 471.667 698.944 449.197C704.634 426.727 720.56 407.939 744.57 393.217C768.582 378.493 800.653 367.855 838.556 361.687C914.359 349.353 1013.39 354.916 1117.68 381.325C1221.96 407.734 1311.71 449.975 1372.51 496.902C1402.91 520.366 1426.05 544.985 1440.16 569.364C1454.27 593.739 1459.33 617.842 1453.64 640.312Z" stroke="url(#paint1_linear_0_1)"/>
    <path d="M1624.78 683.649C1616.49 716.37 1593.3 743.71 1558.38 765.122C1523.46 786.535 1476.84 801.999 1421.75 810.963C1311.57 828.89 1167.65 820.802 1016.11 782.426C864.565 744.05 734.141 682.665 645.777 614.461C601.594 580.359 567.947 544.566 547.426 509.113C526.906 473.663 519.526 438.581 527.812 405.861C536.098 373.14 559.286 345.799 594.205 324.388C629.126 302.975 675.753 287.511 730.842 278.547C841.017 260.62 984.938 268.708 1136.48 307.084C1288.02 345.459 1418.45 406.845 1506.81 475.049C1550.99 509.151 1584.64 544.943 1605.16 580.397C1625.68 615.847 1633.06 650.928 1624.78 683.649Z" stroke="url(#paint2_linear_0_1)"/>
    <path d="M1833.01 736.382C1821.57 781.576 1789.55 819.324 1741.35 848.875C1693.16 878.428 1628.82 899.763 1552.82 912.13C1400.82 936.862 1202.28 925.703 993.231 872.765C784.185 819.828 604.262 735.148 482.355 641.053C421.4 594.005 374.97 544.619 346.648 495.689C318.328 446.762 308.131 398.323 319.575 353.129C331.02 307.935 363.043 270.187 411.236 240.636C459.432 211.083 523.772 189.748 599.772 177.381C751.77 152.649 950.311 163.808 1159.36 216.746C1368.4 269.683 1548.33 354.363 1670.23 448.458C1731.19 495.506 1777.62 544.892 1805.94 593.822C1834.26 642.749 1844.46 691.188 1833.01 736.382Z" stroke="url(#paint3_linear_0_1)"/>
    <defs>
        <linearGradient id="paint0_linear_0_1" x1="81.8686" y1="230.085" x2="1928.15" y2="996.039" gradientUnits="userSpaceOnUse">
            <stop stop-color="#484848"/>
            <stop offset="0.491388" stop-color="#484848" stop-opacity="0.36"/>
            <stop offset="1" stop-color="#484848"/>
        </linearGradient>
        <linearGradient id="paint1_linear_0_1" x1="724.924" y1="436.11" x2="1379.01" y2="707.465" gradientUnits="userSpaceOnUse">
            <stop stop-color="#484848"/>
            <stop offset="0.491388" stop-color="#484848" stop-opacity="0.36"/>
            <stop offset="1" stop-color="#484848"/>
        </linearGradient>
        <linearGradient id="paint2_linear_0_1" x1="565.779" y1="386.901" x2="1516.12" y2="781.162" gradientUnits="userSpaceOnUse">
            <stop stop-color="#484848"/>
            <stop offset="0.491388" stop-color="#484848" stop-opacity="0.36"/>
            <stop offset="1" stop-color="#484848"/>
        </linearGradient>
        <linearGradient id="paint3_linear_0_1" x1="372.128" y1="327.024" x2="1682.95" y2="870.838" gradientUnits="userSpaceOnUse">
            <stop stop-color="#484848"/>
            <stop offset="0.491388" stop-color="#484848" stop-opacity="0.36"/>
            <stop offset="1" stop-color="#484848"/>
        </linearGradient>
    </defs>
</svg>
