<svg width="40" height="45" viewBox="0 0 40 45" fill="none" xmlns="http://www.w3.org/2000/svg">
    <path fill-rule="evenodd" clip-rule="evenodd" d="M38.9777 12.3618L39.011 12.4193C39.148 12.6561 39.2031 12.9178 39.1851 13.1715C39.1871 13.2093 39.1883 13.2473 39.1883 13.2855V41.8988C39.1883 43.6088 37.7971 45 36.0871 45H3.10123C1.39123 45 0 43.6088 0 41.8988V13.39C0 13.1174 0.0492188 12.8561 0.13878 12.6143C0.167959 12.5086 0.209268 12.4045 0.266573 12.305L6.629 1.26712C7.07979 0.485422 7.92003 0 8.82205 0H30.3674C31.268 0 32.1075 0.484279 32.5585 1.26387L38.8189 12.0873C38.8783 12.1744 38.9316 12.2661 38.9777 12.3618ZM30.306 2.6377H20.9581V11.152H35.2307L30.306 2.6377ZM18.3204 2.6377H8.88349L3.97566 11.152H18.3204V2.6377ZM36.0871 42.3624C36.3426 42.3624 36.5506 42.1544 36.5506 41.8988V13.7897H2.6377V41.8988C2.6377 42.1544 2.84565 42.3624 3.10123 42.3624H36.0871ZM23.7162 23.7329C24.2313 23.2179 25.0664 23.2179 25.5814 23.7329C26.0964 24.2479 26.0964 25.083 25.5814 25.598L18.76 32.4194C18.5025 32.6769 18.1649 32.8058 17.8274 32.8058C17.49 32.8058 17.1524 32.6769 16.8949 32.4194L13.6978 29.2225C13.1828 28.7074 13.1828 27.8723 13.6978 27.3573C14.2128 26.8424 15.048 26.8424 15.5629 27.3573L17.8274 29.6218L23.7162 23.7329Z" fill="white"/>
</svg>
