<svg width="45" height="45" viewBox="0 0 45 45" fill="none" xmlns="http://www.w3.org/2000/svg">
    <path d="M20.625 23.1169V2.81253C20.625 2.29503 20.205 1.875 19.6875 1.875C8.83123 1.875 0 11.5481 0 23.4374C0 35.3267 9.67313 44.9999 21.5624 44.9999C26.8818 44.9999 29.7599 44.0362 33.4087 41.0362C33.8006 40.7137 33.8643 40.138 33.5531 39.7368L20.625 23.1169ZM21.5624 43.125C10.7062 43.125 1.87497 34.2937 1.87497 23.4375C1.87497 12.93 9.36183 4.31818 18.7499 3.77633V23.4375C18.7499 23.6456 18.8193 23.8481 18.9487 24.0131L31.5036 40.155C28.543 42.4162 26.0737 43.125 21.5624 43.125Z" fill="white"/>
    <path d="M23.4375 22.5H44.0625C44.58 22.5 45 22.0799 45 21.5624C45 9.67314 35.3268 0 23.4375 0C22.92 0 22.5 0.420029 22.5 0.937528V21.5625C22.5 22.0799 22.92 22.5 23.4375 22.5ZM24.375 1.89747C34.4869 2.37375 42.6262 10.5131 43.1024 20.6249H24.375V1.89747Z" fill="white"/>
    <path d="M44.0623 24.375H25.3123C24.9523 24.375 24.6205 24.5831 24.4648 24.9094C24.3091 25.2356 24.3561 25.6219 24.5829 25.9012L36.7704 40.9893C36.9336 41.1936 37.1736 41.3174 37.4342 41.3362C37.4567 41.338 37.4773 41.338 37.4998 41.338C37.7361 41.338 37.9649 41.248 38.1392 41.0868C42.4985 37.02 44.9998 31.2712 44.9998 25.3125C44.9998 24.795 44.5798 24.375 44.0623 24.375ZM37.5804 39.0075L27.2755 26.2501H43.1023C42.8717 31.0163 40.8992 35.5744 37.5804 39.0075Z" fill="white"/>
</svg>
